<svg id="Layer_1" xmlns="http://www.w3.org/2000/svg" viewBox="0 0 20 20"><style>.st0{fill:#fff;fill-opacity:0}.st1{fill:#acb2c2}.st2{fill:none}</style><path class="st0" d="M4 19c-1.7 0-3-1.3-3-3V4c0-1.7 1.3-3 3-3h12c1.7 0 3 1.3 3 3v12c0 1.7-1.3 3-3 3H4z"/><path class="st1" d="M16 2c1.1 0 2 .9 2 2v12c0 1.1-.9 2-2 2H4c-1.1 0-2-.9-2-2V4c0-1.1.9-2 2-2h12m0-2H4C1.8 0 0 1.8 0 4v12c0 2.2 1.8 4 4 4h12c2.2 0 4-1.8 4-4V4c0-2.2-1.8-4-4-4z"/><circle class="st2" cx="10" cy="10" r="4"/><path class="st1" d="M11 8.4v-.9c0-.4.1-.6.7-.6h.8V5.3h-1.3C9.6 5.3 9 6.1 9 7.4v1H8v1.5h1v4.6h2V9.9h1.3l.2-1.5H11z"/></svg>