<svg id="Layer_1" xmlns="http://www.w3.org/2000/svg" viewBox="0 0 60 60"><style>.st0{fill:#fff}.st1{fill:#8790a6}</style><path class="st0" d="M30 59C14 59 1 46 1 30S14 1 30 1s29 13 29 29-13 29-29 29z"/><path class="st1" d="M30 2c15.4 0 28 12.6 28 28S45.4 58 30 58 2 45.4 2 30 14.6 2 30 2m0-2C13.4 0 0 13.4 0 30s13.4 30 30 30 30-13.4 30-30S46.6 0 30 0z"/><path class="st1" d="M42.7 16.8c-.1-.5-.5-.8-1-.8-5.3 0-18.1.9-23.2 8.4-2.7 3.9-2.9 8.9-.7 15l.1.1c-.8 2-1.1 3.3-1.1 3.3-.1.5.2 1.1.8 1.2h.2c.5 0 .9-.3 1-.8 0-.1 2.6-10.4 11.6-16.4.5-.3.6-.9.3-1.4-.3-.5-.9-.6-1.4-.3-5.1 3.4-8.3 8-10.1 11.7-1.3-4.6-1-8.4 1.1-11.3 4-5.8 13.5-7.2 19.2-7.4-1.2 1.8-2.6 5.1-2.6 10.9 0 3.1-.9 5.5-2.6 7.1-2.8 2.6-7.3 2.8-10.7 2.6-.6 0-1 .4-1.1.9 0 .5.4 1 .9 1.1.7.1 1.4.1 2.1.1 3.4 0 7.3-.7 10.1-3.2 2.2-2 3.3-4.9 3.3-8.6 0-9.1 3.4-11.1 3.4-11.1.3-.2.5-.7.4-1.1z"/></svg>