<svg id="Layer_1" xmlns="http://www.w3.org/2000/svg" viewBox="0 0 64 64"><style>.st0{fill:#6b8294}</style><path class="st0" d="M32 25c3.9 0 7 3.1 7 7s-3.1 7-7 7-7-3.1-7-7 3.1-7 7-7m0-2c-5 0-9 4-9 9s4 9 9 9 9-4 9-9-4-9-9-9zm0-12c.6 0 1 .4 1 1s-.4 1-1 1-1-.4-1-1 .4-1 1-1m0-2c-1.7 0-3 1.3-3 3s1.3 3 3 3 3-1.3 3-3-1.3-3-3-3zm0 42c.6 0 1 .4 1 1s-.4 1-1 1-1-.4-1-1 .4-1 1-1m0-2c-1.7 0-3 1.3-3 3s1.3 3 3 3 3-1.3 3-3-1.3-3-3-3zm20-18c.6 0 1 .4 1 1s-.4 1-1 1-1-.4-1-1 .4-1 1-1m0-2c-1.7 0-3 1.3-3 3s1.3 3 3 3 3-1.3 3-3-1.3-3-3-3zm-40 2c.6 0 1 .4 1 1s-.4 1-1 1-1-.4-1-1 .4-1 1-1m0-2c-1.7 0-3 1.3-3 3s1.3 3 3 3 3-1.3 3-3-1.3-3-3-3zm36-15c-.3 0-.6.1-.9.2-1 .5-1.4 1.7-1 2.7.3.7 1.1 1.1 1.8 1.1.3 0 .6-.1.9-.2 1-.5 1.4-1.7 1-2.7-.3-.7-1.1-1.1-1.8-1.1zm0 31c-.3 0-.6.1-.9.2-1 .5-1.4 1.7-1 2.7.3.7 1.1 1.1 1.8 1.1.3 0 .6-.1.9-.2 1-.5 1.4-1.7 1-2.7-.3-.7-1.1-1.1-1.8-1.1zm-32 0c-1.1 0-2 .9-2 2s.9 2 2 2 2-.9 2-2-.9-2-2-2zm0-29c-1.1 0-2 .9-2 2s.9 2 2 2 2-.9 2-2-.9-2-2-2z"/></svg>