<svg id="Layer_1" xmlns="http://www.w3.org/2000/svg" viewBox="0 0 64 64"><style>.st0{fill:none;stroke:#6b8294;stroke-width:2;stroke-linecap:round;stroke-miterlimit:10}</style><path class="st0" d="M49 55H16c-3.3 0-6-2.7-6-6V16c0-3.3 2.7-6 6-6h33c3.3 0 6 2.7 6 6v33c0 3.3-2.7 6-6 6zM27.4 38.5L38.9 27m-.4 11.5L27 27"/><path class="st0" d="M43 16H22c-3.3 0-6 2.7-6 6v2h1c.5 0 1 .5 1 1v3c0 .5-.5 1-1 1h-1v8h1c.5 0 1 .5 1 1v3c0 .5-.5 1-1 1h-1v1c0 3.3 2.7 6 6 6h21c3.3 0 6-2.7 6-6V22c0-3.3-2.7-6-6-6z"/></svg>