<svg id="Layer_1" xmlns="http://www.w3.org/2000/svg" viewBox="0 0 64 64"><style>.st0{fill:#6b8294}.st1,.st2{fill:none;stroke:#6b8294;stroke-width:2;stroke-miterlimit:10}.st2{stroke-linecap:round}</style><path class="st0" d="M53 11v41H11V36h17V11h25m0-2H28c-1.1 0-2 .9-2 2v23H11c-1.1 0-2 .9-2 2v16c0 1.1.9 2 2 2h42c1.1 0 2-.9 2-2V11c0-1.1-.9-2-2-2z"/><path class="st1" d="M47.9 20.5c-.5-2.5-3.6-4.5-7.4-4.5s-6.9 2-7.4 4.5c0 .1-.1.2-.1.3v6.4c0 .4.4.8 1 .8h13c.6 0 1-.4 1-.8v-6.4c0-.1 0-.2-.1-.3z"/><circle class="st1" cx="47" cy="36" r="1"/><path class="st2" d="M10 22c2.1-.1 3.9.9 4.6 2.8.2.4.3 1 .4 1.8M10 17c4.2-.2 7.8 2 9.3 6 .3.9.7 2.2.7 4"/><path class="st1" d="M16 35h5v9h-5z"/><path class="st0" d="M34 36v16H11V36h23m0-2H11c-1.1 0-2 .9-2 2v16c0 1.1.9 2 2 2h23c1.1 0 2-.9 2-2V36c0-1.1-.9-2-2-2z"/></svg>