<svg id="Layer_1" xmlns="http://www.w3.org/2000/svg" viewBox="0 0 20 20"><style>.st0{fill:#fff}.st1{fill:#8790a6}</style><path class="st0" d="M4 19c-1.7 0-3-1.3-3-3V4c0-1.7 1.3-3 3-3h12c1.7 0 3 1.3 3 3v12c0 1.7-1.3 3-3 3H4z"/><path class="st1" d="M16 2c1.1 0 2 .9 2 2v12c0 1.1-.9 2-2 2H4c-1.1 0-2-.9-2-2V4c0-1.1.9-2 2-2h12m0-2H4C1.8 0 0 1.8 0 4v12c0 2.2 1.8 4 4 4h12c2.2 0 4-1.8 4-4V4c0-2.2-1.8-4-4-4z"/><circle class="st0" cx="10" cy="10" r="4"/><path class="st1" d="M10 7c1.7 0 3 1.3 3 3s-1.3 3-3 3-3-1.3-3-3 1.3-3 3-3m0-2c-2.8 0-5 2.2-5 5s2.2 5 5 5 5-2.2 5-5-2.2-5-5-5z"/></svg>