<svg id="Layer_1" xmlns="http://www.w3.org/2000/svg" viewBox="0 0 150 31"><style>.st0{fill:#f6a500}.st1{fill:#344049}</style><path class="st0" d="M95.9 11.6l.3-1.7c1 .5 1.9.7 2.9.7.9 0 1.4-.3 1.4-.9 0-.5-.3-.8-1.3-1l-.4-.1c-1.8-.3-2.6-1-2.6-2.5 0-1.4 1-2.4 3.1-2.4.7 0 1.6.1 2.8.4l-.3 1.6c-1-.4-1.8-.5-2.5-.5-.8 0-1.2.3-1.2.8 0 .6.3.9 1.2 1l.4.1c2 .3 2.7 1.1 2.7 2.5 0 1.6-1.1 2.4-3.3 2.4-.9 0-2-.1-3.2-.4m15.6-1.5l.3 1.4c-1.2.3-2.4.4-3.5.4-3 0-4.3-1.3-4.3-4.1 0-2.7 1.4-4.1 4.1-4.1 1.4 0 2.4.4 3 1.1.6.7.9 1.7.9 3v.5h-6c.1 1.4.7 2.2 2.6 2.2 1 .1 1.9-.1 2.9-.4M106.1 7h4c-.1-1.1-.6-1.8-1.9-1.8-1.3 0-2 .6-2.1 1.8m12.5-1.6c-.9.1-1.8.3-2.6.6v5.8h-2V4h1.8v.6c.9-.5 1.8-.7 2.6-.8l.2 1.6zm5.5 4.6l.9-2.2 1.4-3.8h2.1l-3.2 7.8h-2.4L119.8 4h2.1l1.4 3.8zm7.9-7.6h-1.9V.2h1.9v2.2zm0 9.4h-1.9V4h1.9v7.8zm8.4-1.7l.3 1.6c-1 .2-1.9.3-2.6.3-2.8 0-4.1-1.3-4.1-4.1s1.3-4.1 4.1-4.1c.7 0 1.5.1 2.6.3l-.3 1.6c-.8-.3-1.5-.4-2.1-.4-1.7 0-2.4.9-2.4 2.7 0 1.8.7 2.7 2.4 2.7.6-.1 1.3-.3 2.1-.6m9.2 0l.3 1.4c-1.2.3-2.4.4-3.5.4-3 0-4.3-1.3-4.3-4.1 0-2.7 1.4-4.1 4.1-4.1 1.4 0 2.4.4 3 1.1.6.7.9 1.7.9 3v.5h-5.9c.1 1.4.7 2.2 2.6 2.2.8.1 1.7-.1 2.8-.4M144.1 7h4c-.1-1.1-.6-1.8-1.9-1.8-1.3 0-1.9.6-2.1 1.8"/><path class="st1" d="M17.5 12.8c-1.1-1.1-2.7-1.7-4.8-1.7-2.9 0-6.7.6-7.3.7V4H-.1v24.7s.8.5 2.3 1c1.4.5 3.8 1 7.2 1 3.4 0 6-.9 7.7-2.5 1.7-1.7 2.5-4.3 2.5-7.9.1-3.6-.7-6.1-2.1-7.5m-3.3 8c0 2.1-.2 3.7-1.2 4.8-.8.8-2.2 1.2-4.3 1.2-2.2 0-3.2-.5-3.4-.6V15.5h5.3c1.3 0 2.2.2 2.7.7.8.7.9 2.1.9 4.6M48.9 11c-4.4 0-9.2.9-9.3.9h-.1v3.4H48c.9 0 1.5.2 1.9.6.5.5.5 1.3.5 2.1v.9c-.5 0-3.2-.2-5.5-.2-5.6 0-7.8 1.6-7.8 5.6 0 4.5 2.2 6.4 7.4 6.4 6.1 0 11-1.7 11-1.7h.1V18.1c-.1-3.5-.9-7.1-6.7-7.1m1.4 15.1c-.5.1-3.4.6-5.7.6-2 0-2.3-.9-2.3-2.5 0-1.5.6-1.9 3.2-1.9h4.9v3.8zm33-15.1c-6 0-12.4 1.2-12.4 1.3h-.1V30h5.3V15.4h5.6c1.2 0 2 .2 2.4.7.5.5.6 1.2.6 2.2V30H90V18.1c0-5-2-7.1-6.7-7.1m-22.6.4H66v18.4h-5.3zm-.6-7.5V9h5.4V3.9zM34.9 11c-4.8 0-11.8 1.2-11.9 1.2h-.1v17.7h5.3V15.4H35l-.1-4.4z"/></svg>