<svg id="Layer_1" xmlns="http://www.w3.org/2000/svg" viewBox="0 0 137 32"><style>.st0{fill:#ffce01}.st0,.st1,.st2{fill-rule:evenodd;clip-rule:evenodd}.st1{fill:#f6b609}.st2{fill:#3f4351}</style><path class="st0" d="M24.5 14.4c-.7 0-1.4-.2-2.1-.6l-8.1-4.7-8.1 4.7c-2 1.1-4.5.5-5.7-1.5-1.2-2-.5-4.5 1.5-5.7L12.2.7c1.3-.7 2.9-.7 4.2 0l10.2 5.9c2 1.2 2.7 3.7 1.5 5.7-.7 1.3-2.1 2.1-3.6 2.1"/><path class="st0" d="M14.4 32c-1.4 0-2.8-.7-3.6-2.1-1.2-2-.5-4.5 1.5-5.7l8.1-4.7v-9.3c0-2.3 1.9-4.2 4.2-4.2s4.2 1.9 4.2 4.2V22c0 1.5-.8 2.9-2.1 3.6l-10.2 5.9c-.7.3-1.4.5-2.1.5"/><path class="st0" d="M14.3 32c-.7 0-1.4-.2-2.1-.6L2.1 25.6C.8 24.8 0 23.5 0 22V10.2C0 7.9 1.9 6 4.2 6s4.2 1.9 4.2 4.2v9.3l8.1 4.7c2 1.1 2.7 3.7 1.5 5.7-.8 1.4-2.2 2.1-3.7 2.1"/><path class="st1" d="M24.5 6.1c-2.3 0-4.2 1.9-4.2 4.2v2.4l2.1 1.2c.7.4 1.4.6 2.1.6 1.4 0 2.8-.7 3.6-2.1.4-.7.6-1.5.6-2.2v-1c0-.1 0-.2-.1-.2 0-.1 0-.1-.1-.2 0-.1-.1-.1-.1-.2s0-.1-.1-.2c0-.1-.1-.1-.1-.2L28 8l-.1-.1c0-.1-.1-.1-.1-.2l-.1-.1c0-.1-.1-.1-.2-.2l-.1-.1c-.1-.1-.1-.1-.2-.1s-.1-.2-.2-.3c0 0-.1-.1-.2-.1s-.1-.1-.2-.1c-.5-.4-1.2-.6-2.1-.6.1 0 .1 0 0 0 .1 0 .1 0 0 0 .1 0 .1 0 0 0M14.3 23l-2.1 1.2c-2 1.1-2.7 3.7-1.5 5.7.4.7.9 1.2 1.5 1.5.1 0 .1.1.2.1s.1 0 .2.1h.1c.5.2 1 .3 1.5.3s1-.1 1.5-.3h.1c.1 0 .1 0 .1-.1h.1c.1 0 .1-.1.2-.1.6-.4 1.2-.9 1.5-1.5.4-.7.6-1.4.6-2.1 0-1.4-.7-2.8-2.1-3.6L14.3 23M4.2 6.1c-.8 0-1.6.2-2.2.6-.1 0-.1.1-.2.1s-.1.1-.2.1c0 0-.1.1-.2.1s-.1.1-.2.1l-.1.1c0 .2 0 .2-.1.3l-.1.1c0 .1-.1.1-.1.2s-.1.1-.1.1c0 .1-.1.1-.1.2s-.1.1-.1.2c0 0-.1.1-.1.2s-.1.1-.1.2 0 .1-.1.2c0 .1-.1.1-.1.2v1c0 .7.1 1.4.5 2.1.1.1.1.2.2.3 0 0 0 .1.1.1 0 .2.1.3.1.4l.3.3.1.1c.1.1.2.2.3.2.1.1.2.1.3.2h.1c.1.1.2.1.3.2.1.1.2.1.3.1h.1c.1 0 .2.1.3.1.1 0 .2.1.3.1h1.2c.1 0 .2 0 .4-.1h.1c.1 0 .2-.1.3-.1.1 0 .2-.1.3-.1h.1c.1-.1.2-.1.3-.2l2.1-1.2v-2.4c.1-2.3-1.7-4.1-4-4.1"/><path class="st2" d="M44.6 17.4h-3.9v6c1.4.2 2.7.3 3.9.3 3 0 4.5-1.1 4.5-3.2 0-1.9-1.2-3.1-4.5-3.1zm-4-3.1H44c3.1 0 3.9-1.1 3.9-2.9 0-1.9-1.3-2.9-3.9-2.9-1 0-2.2.1-3.4.3v5.5zm8.7 1.2c2.5.9 3.7 2.7 3.7 5.3 0 4-2.8 6-8.3 6-2.5 0-5.1-.3-7.9-.9V6.3c2.9-.6 5.4-.9 7.3-.9 5.5 0 7.7 1.9 7.7 5.5 0 2.3-.9 3.8-2.5 4.6zm14.5-1.2h-4.5v12.1h-3.4V12.3c2.8-.8 4.7-.9 7.9-.9v2.9zm3.4 7.9c0 1.3.8 2 2.5 2h3.1v-4h-2.7c-1.9 0-2.9.6-2.9 2zm2.4-4.7h3.1v-.7c0-1.9-.5-2.5-2.5-2.5h-4v-2.9h4.3c4.4 0 5.7 2 5.7 5.4V26c-2.3.8-5.3.9-6.7.9-4.2 0-5.7-1.7-5.7-4.6 0-3.2 2.1-4.8 5.8-4.8zm13.2 8.9h-3.4V11.8h3.4v14.6zm16.2 0h-3.4v-9.8c0-1.6-1.4-2.4-3.1-2.4h-3.1v12.1H86v-14c2.2-.7 5-.9 6.9-.9 3.2 0 6.1 1.7 6.1 5.2v9.8z"/></svg>