<?xml version="1.0" encoding="utf-8"?>
<!-- Generator: Adobe Illustrator 21.1.0, SVG Export Plug-In . SVG Version: 6.00 Build 0)  -->
<svg version="1.1" id="Layer_1" xmlns="http://www.w3.org/2000/svg" xmlns:xlink="http://www.w3.org/1999/xlink" x="0px" y="0px"
	 viewBox="0 0 60 60" style="enable-background:new 0 0 60 60;" xml:space="preserve">
<style type="text/css">
	.st0{fill:#FFFFFF;}
	.st1{fill:#8790A6;}
</style>
<g>
	<path class="st0" d="M30,59C14,59,1,46,1,30C1,14,14,1,30,1c16,0,29,13,29,29C59,46,46,59,30,59z"/>
	<path class="st1" d="M30,2c15.4,0,28,12.6,28,28S45.4,58,30,58S2,45.4,2,30S14.6,2,30,2 M30,0C13.4,0,0,13.4,0,30s13.4,30,30,30
		s30-13.4,30-30S46.6,0,30,0L30,0z"/>
</g>
<path class="st1" d="M42.7,16.8c-0.1-0.5-0.5-0.8-1-0.8c0,0,0,0,0,0c-5.3,0-18.1,0.9-23.2,8.4c-2.7,3.9-2.9,8.9-0.7,15
	c0,0,0.1,0.1,0.1,0.1c-0.8,2-1.1,3.3-1.1,3.3c-0.1,0.5,0.2,1.1,0.8,1.2c0.1,0,0.1,0,0.2,0c0.5,0,0.9-0.3,1-0.8
	c0-0.1,2.6-10.4,11.6-16.4c0.5-0.3,0.6-0.9,0.3-1.4c-0.3-0.5-0.9-0.6-1.4-0.3c-5.1,3.4-8.3,8-10.1,11.7c-1.3-4.6-1-8.4,1.1-11.3
	c4-5.8,13.5-7.2,19.2-7.4c-1.2,1.8-2.6,5.1-2.6,10.9c0,3.1-0.9,5.5-2.6,7.1c-2.8,2.6-7.3,2.8-10.7,2.6c-0.6,0-1,0.4-1.1,0.9
	c0,0.5,0.4,1,0.9,1.1c0.7,0.1,1.4,0.1,2.1,0.1c3.4,0,7.3-0.7,10.1-3.2c2.2-2,3.3-4.9,3.3-8.6c0-9.1,3.4-11.1,3.4-11.1
	C42.6,17.7,42.8,17.2,42.7,16.8z"/>
</svg>
