<?xml version="1.0" encoding="utf-8"?>
<!-- Generator: Adobe Illustrator 21.1.0, SVG Export Plug-In . SVG Version: 6.00 Build 0)  -->
<svg version="1.1" id="Layer_1" xmlns="http://www.w3.org/2000/svg" xmlns:xlink="http://www.w3.org/1999/xlink" x="0px" y="0px"
	 viewBox="0 0 64 64" style="enable-background:new 0 0 64 64;" xml:space="preserve">
<style type="text/css">
	.st0{fill:#6B8294;}
	.st1{fill:none;stroke:#6B8294;stroke-width:2;stroke-miterlimit:10;}
	.st2{fill:none;stroke:#6B8294;stroke-width:2;stroke-linecap:round;stroke-miterlimit:10;}
</style>
<g>
	<path class="st0" d="M53,11v41H34h-6H11V36h15h2v-2V11H53 M53,9H28c-1.1,0-2,0.9-2,2v23H11c-1.1,0-2,0.9-2,2v16c0,1.1,0.9,2,2,2h17
		h6h19c1.1,0,2-0.9,2-2V11C55,9.9,54.1,9,53,9L53,9z"/>
</g>
<path class="st1" d="M47.9,20.5C47.4,18,44.3,16,40.5,16s-6.9,2-7.4,4.5c0,0.1-0.1,0.2-0.1,0.3v6.4c0,0.4,0.4,0.8,1,0.8h13
	c0.6,0,1-0.4,1-0.8v-6.4C48,20.7,48,20.6,47.9,20.5z"/>
<circle class="st1" cx="47" cy="36" r="1"/>
<path class="st2" d="M10,22c2.1-0.1,3.9,0.9,4.6,2.8c0.2,0.4,0.3,1,0.4,1.8"/>
<path class="st2" d="M10,17c4.2-0.2,7.8,2,9.3,6c0.3,0.9,0.7,2.2,0.7,4"/>
<rect x="16" y="35" class="st1" width="5" height="9"/>
<g>
	<path class="st0" d="M34,36v16H11V36H34 M34,34H11c-1.1,0-2,0.9-2,2v16c0,1.1,0.9,2,2,2h23c1.1,0,2-0.9,2-2V36
		C36,34.9,35.1,34,34,34L34,34z"/>
</g>
</svg>
