<?xml version="1.0" encoding="utf-8"?>
<!-- Generator: Adobe Illustrator 21.1.0, SVG Export Plug-In . SVG Version: 6.00 Build 0)  -->
<svg version="1.1" id="Layer_1" xmlns="http://www.w3.org/2000/svg" xmlns:xlink="http://www.w3.org/1999/xlink" x="0px" y="0px"
	 viewBox="0 0 64 64" style="enable-background:new 0 0 64 64;" xml:space="preserve">
<style type="text/css">
	.st0{fill:none;stroke:#6B8294;stroke-width:2;stroke-linecap:round;stroke-miterlimit:10;}
</style>
<path class="st0" d="M49,55H16c-3.3,0-6-2.7-6-6V16c0-3.3,2.7-6,6-6h33c3.3,0,6,2.7,6,6v33C55,52.3,52.3,55,49,55z"/>
<line class="st0" x1="27.4" y1="38.5" x2="38.9" y2="27"/>
<line class="st0" x1="38.5" y1="38.5" x2="27" y2="27"/>
<path class="st0" d="M43,16H22c-3.3,0-6,2.7-6,6v2h1c0.5,0,1,0.5,1,1v3c0,0.5-0.5,1-1,1h-1v8h1c0.5,0,1,0.5,1,1v3c0,0.5-0.5,1-1,1
	h-1v1c0,3.3,2.7,6,6,6h21c3.3,0,6-2.7,6-6V22C49,18.7,46.3,16,43,16z"/>
</svg>
