<?xml version="1.0" encoding="utf-8"?>
<!-- Generator: Adobe Illustrator 21.1.0, SVG Export Plug-In . SVG Version: 6.00 Build 0)  -->
<svg version="1.1" id="Layer_1" xmlns="http://www.w3.org/2000/svg" xmlns:xlink="http://www.w3.org/1999/xlink" x="0px" y="0px"
	 viewBox="0 0 64 64" style="enable-background:new 0 0 64 64;" xml:space="preserve">
<style type="text/css">
	.st0{fill:#6B8294;}
</style>
<g>
	<path class="st0" d="M32,25c3.9,0,7,3.1,7,7s-3.1,7-7,7s-7-3.1-7-7S28.1,25,32,25 M32,23c-5,0-9,4-9,9s4,9,9,9s9-4,9-9S37,23,32,23
		L32,23z"/>
</g>
<g>
	<path class="st0" d="M32,11c0.6,0,1,0.4,1,1s-0.4,1-1,1s-1-0.4-1-1S31.4,11,32,11 M32,9c-1.7,0-3,1.3-3,3s1.3,3,3,3
		c1.7,0,3-1.3,3-3S33.7,9,32,9L32,9z"/>
</g>
<g>
	<path class="st0" d="M32,51c0.6,0,1,0.4,1,1s-0.4,1-1,1s-1-0.4-1-1S31.4,51,32,51 M32,49c-1.7,0-3,1.3-3,3s1.3,3,3,3
		c1.7,0,3-1.3,3-3S33.7,49,32,49L32,49z"/>
</g>
<g>
	<path class="st0" d="M52,31c0.6,0,1,0.4,1,1s-0.4,1-1,1s-1-0.4-1-1S51.4,31,52,31 M52,29c-1.7,0-3,1.3-3,3c0,1.7,1.3,3,3,3
		s3-1.3,3-3C55,30.3,53.7,29,52,29L52,29z"/>
</g>
<g>
	<path class="st0" d="M12,31c0.6,0,1,0.4,1,1s-0.4,1-1,1s-1-0.4-1-1S11.4,31,12,31 M12,29c-1.7,0-3,1.3-3,3c0,1.7,1.3,3,3,3
		s3-1.3,3-3C15,30.3,13.7,29,12,29L12,29z"/>
</g>
<g>
	<path class="st0" d="M48,14c-0.3,0-0.6,0.1-0.9,0.2c-1,0.5-1.4,1.7-1,2.7c0.3,0.7,1.1,1.1,1.8,1.1c0.3,0,0.6-0.1,0.9-0.2
		c1-0.5,1.4-1.7,1-2.7C49.5,14.4,48.7,14,48,14L48,14z"/>
</g>
<g>
	<path class="st0" d="M48,45c-0.3,0-0.6,0.1-0.9,0.2c-1,0.5-1.4,1.7-1,2.7c0.3,0.7,1.1,1.1,1.8,1.1c0.3,0,0.6-0.1,0.9-0.2
		c1-0.5,1.4-1.7,1-2.7C49.5,45.4,48.7,45,48,45L48,45z"/>
</g>
<g>
	<path class="st0" d="M16,45c-1.1,0-2,0.9-2,2s0.9,2,2,2s2-0.9,2-2S17.1,45,16,45L16,45z"/>
</g>
<g>
	<path class="st0" d="M16,16c-1.1,0-2,0.9-2,2s0.9,2,2,2s2-0.9,2-2S17.1,16,16,16L16,16z"/>
</g>
</svg>
