<?xml version="1.0" encoding="utf-8"?>
<!-- Generator: Adobe Illustrator 21.1.0, SVG Export Plug-In . SVG Version: 6.00 Build 0)  -->
<svg version="1.1" id="Layer_1" xmlns="http://www.w3.org/2000/svg" xmlns:xlink="http://www.w3.org/1999/xlink" x="0px" y="0px"
	 viewBox="0 0 20 20" style="enable-background:new 0 0 20 20;" xml:space="preserve">
<style type="text/css">
	.st0{fill:#FFFFFF;fill-opacity:0;}
	.st1{fill:#acb2c2;}
	.st2{fill:none;}
</style>
<g>
	<path class="st0" d="M4,19c-1.7,0-3-1.3-3-3V4c0-1.7,1.3-3,3-3h12c1.7,0,3,1.3,3,3v12c0,1.7-1.3,3-3,3H4z"/>
	<path class="st1" d="M16,2c1.1,0,2,0.9,2,2v12c0,1.1-0.9,2-2,2H4c-1.1,0-2-0.9-2-2V4c0-1.1,0.9-2,2-2H16 M16,0H4C1.8,0,0,1.8,0,4
		v12c0,2.2,1.8,4,4,4h12c2.2,0,4-1.8,4-4V4C20,1.8,18.2,0,16,0L16,0z"/>
</g>
<g>
	<circle class="st2" cx="10" cy="10" r="4"/>
	<path class="st1" d="M10,7c1.7,0,3,1.3,3,3s-1.3,3-3,3s-3-1.3-3-3S8.3,7,10,7 M10,5c-2.8,0-5,2.2-5,5s2.2,5,5,5s5-2.2,5-5
		S12.8,5,10,5L10,5z"/>
</g>
</svg>
