<?xml version="1.0" encoding="utf-8"?>
<!-- Generator: Adobe Illustrator 20.1.0, SVG Export Plug-In . SVG Version: 6.00 Build 0)  -->
<svg version="1.1" id="Layer_1" xmlns="http://www.w3.org/2000/svg" xmlns:xlink="http://www.w3.org/1999/xlink" x="0px" y="0px"
	 viewBox="0 0 150 31" style="enable-background:new 0 0 150 31;" xml:space="preserve">
<style type="text/css">
	.st0{fill:#F6A500;}
	.st1{fill:#FFFFFF;}
</style>
<path class="st0" d="M95.9,11.6l0.3-1.7c1,0.5,1.9,0.7,2.9,0.7c0.9,0,1.4-0.3,1.4-0.9c0-0.5-0.3-0.8-1.3-1l-0.4-0.1
	c-1.8-0.3-2.6-1-2.6-2.5c0-1.4,1-2.4,3.1-2.4c0.7,0,1.6,0.1,2.8,0.4l-0.3,1.6c-1-0.4-1.8-0.5-2.5-0.5c-0.8,0-1.2,0.3-1.2,0.8
	c0,0.6,0.3,0.9,1.2,1l0.4,0.1c2,0.3,2.7,1.1,2.7,2.5c0,1.6-1.1,2.4-3.3,2.4C98.2,12,97.1,11.9,95.9,11.6"/>
<path class="st0" d="M111.5,10.1l0.3,1.4c-1.2,0.3-2.4,0.4-3.5,0.4c-3,0-4.3-1.3-4.3-4.1c0-2.7,1.4-4.1,4.1-4.1c1.4,0,2.4,0.4,3,1.1
	c0.6,0.7,0.9,1.7,0.9,3v0.5H106c0.1,1.4,0.7,2.2,2.6,2.2C109.6,10.6,110.5,10.4,111.5,10.1 M106.1,7h4c-0.1-1.1-0.6-1.8-1.9-1.8
	C106.9,5.2,106.2,5.8,106.1,7"/>
<path class="st0" d="M118.6,5.4c-0.9,0.1-1.8,0.3-2.6,0.6v5.8H114V4h1.8v0.6c0.9-0.5,1.8-0.7,2.6-0.8L118.6,5.4z"/>
<polygon class="st0" points="124.1,10 125,7.8 126.4,4 128.5,4 125.3,11.8 122.9,11.8 119.8,4 121.9,4 123.3,7.8 "/>
<path class="st0" d="M132,2.4h-1.9V0.2h1.9V2.4z M132,11.8h-1.9V4h1.9V11.8z"/>
<path class="st0" d="M140.4,10.1l0.3,1.6c-1,0.2-1.9,0.3-2.6,0.3c-2.8,0-4.1-1.3-4.1-4.1c0-2.8,1.3-4.1,4.1-4.1
	c0.7,0,1.5,0.1,2.6,0.3l-0.3,1.6c-0.8-0.3-1.5-0.4-2.1-0.4c-1.7,0-2.4,0.9-2.4,2.7c0,1.8,0.7,2.7,2.4,2.7
	C138.9,10.6,139.6,10.4,140.4,10.1"/>
<path class="st0" d="M149.6,10.1l0.3,1.4c-1.2,0.3-2.4,0.4-3.5,0.4c-3,0-4.3-1.3-4.3-4.1c0-2.7,1.4-4.1,4.1-4.1c1.4,0,2.4,0.4,3,1.1
	c0.6,0.7,0.9,1.7,0.9,3v0.5h-5.9c0.1,1.4,0.7,2.2,2.6,2.2C147.6,10.6,148.5,10.4,149.6,10.1 M144.1,7h4c-0.1-1.1-0.6-1.8-1.9-1.8
	C144.9,5.2,144.3,5.8,144.1,7"/>
<path class="st1" d="M17.5,12.8c-1.1-1.1-2.7-1.7-4.8-1.7c-2.9,0-6.7,0.6-7.3,0.7V4h-5.5v24.7l0,0c0,0,0.8,0.5,2.3,1
	c1.4,0.5,3.8,1,7.2,1c3.4,0,6-0.9,7.7-2.5c1.7-1.7,2.5-4.3,2.5-7.9C19.7,16.7,18.9,14.2,17.5,12.8 M14.2,20.8L14.2,20.8
	c0,2.1-0.2,3.7-1.2,4.8c-0.8,0.8-2.2,1.2-4.3,1.2c-2.2,0-3.2-0.5-3.4-0.6V15.5h5.3c1.3,0,2.2,0.2,2.7,0.7
	C14.1,16.9,14.2,18.3,14.2,20.8"/>
<path class="st1" d="M48.9,11c-4.4,0-9.2,0.9-9.3,0.9l-0.1,0v3.4H48c0.9,0,1.5,0.2,1.9,0.6c0.5,0.5,0.5,1.3,0.5,2.1l0,0.9
	c-0.5,0-3.2-0.2-5.5-0.2c-5.6,0-7.8,1.6-7.8,5.6c0,4.5,2.2,6.4,7.4,6.4c6.1,0,11-1.7,11-1.7l0.1,0V18.1C55.5,14.6,54.7,11,48.9,11
	 M50.3,26.1c-0.5,0.1-3.4,0.6-5.7,0.6c-2,0-2.3-0.9-2.3-2.5c0-1.5,0.6-1.9,3.2-1.9h4.9V26.1z"/>
<path class="st1" d="M83.3,11c-6,0-12.4,1.2-12.4,1.3l-0.1,0v17.7h5.3V15.4h5.6c1.2,0,2,0.2,2.4,0.7c0.5,0.5,0.6,1.2,0.6,2.2v11.7
	H90V18.1C90,13.1,88,11,83.3,11"/>
<rect x="60.7" y="11.4" class="st1" width="5.3" height="18.4"/>
<polygon class="st1" points="60.1,3.9 60.1,9 65.5,9 65.5,9 65.5,9 65.5,3.9 "/>
<path class="st1" d="M34.9,11c-4.8,0-11.8,1.2-11.9,1.2l-0.1,0v17.7h5.3V15.4H35L34.9,11L34.9,11z"/>
</svg>
