<?xml version="1.0" encoding="utf-8"?>
<!-- Generator: Adobe Illustrator 21.1.0, SVG Export Plug-In . SVG Version: 6.00 Build 0)  -->
<svg version="1.1" id="Layer_1" xmlns="http://www.w3.org/2000/svg" xmlns:xlink="http://www.w3.org/1999/xlink" x="0px" y="0px"
	 viewBox="0 0 137 32" style="enable-background:new 0 0 137 32;" xml:space="preserve">
<style type="text/css">
	.st0{fill-rule:evenodd;clip-rule:evenodd;fill:#FFCE01;}
	.st1{fill-rule:evenodd;clip-rule:evenodd;fill:#F6B609;}
	.st2{fill-rule:evenodd;clip-rule:evenodd;fill:#3F4351;}
</style>
<g>
	<g>
		<path class="st0" d="M24.5,14.4c-0.7,0-1.4-0.2-2.1-0.6l-8.1-4.7l-8.1,4.7c-2,1.1-4.5,0.5-5.7-1.5c-1.2-2-0.5-4.5,1.5-5.7
			l10.2-5.9c1.3-0.7,2.9-0.7,4.2,0l10.2,5.9c2,1.2,2.7,3.7,1.5,5.7C27.4,13.6,26,14.4,24.5,14.4"/>
		<path class="st0" d="M14.4,32c-1.4,0-2.8-0.7-3.6-2.1c-1.2-2-0.5-4.5,1.5-5.7l8.1-4.7v-9.3c0-2.3,1.9-4.2,4.2-4.2s4.2,1.9,4.2,4.2
			V22c0,1.5-0.8,2.9-2.1,3.6l-10.2,5.9C15.8,31.8,15.1,32,14.4,32"/>
		<path class="st0" d="M14.3,32c-0.7,0-1.4-0.2-2.1-0.6L2.1,25.6C0.8,24.8,0,23.5,0,22V10.2c0-2.3,1.9-4.2,4.2-4.2s4.2,1.9,4.2,4.2
			v9.3l8.1,4.7c2,1.1,2.7,3.7,1.5,5.7C17.2,31.3,15.8,32,14.3,32"/>
		<path class="st1" d="M24.5,6.1c-2.3,0-4.2,1.9-4.2,4.2l0,2.4l2.1,1.2c0.7,0.4,1.4,0.6,2.1,0.6c1.4,0,2.8-0.7,3.6-2.1
			c0.4-0.7,0.6-1.5,0.6-2.2c0-0.1,0-0.2,0-0.2c0-0.1,0-0.1,0-0.2c0-0.1,0-0.1,0-0.2c0-0.1,0-0.1,0-0.2c0-0.1,0-0.1,0-0.2
			c0-0.1,0-0.2-0.1-0.2c0-0.1,0-0.1-0.1-0.2c0-0.1-0.1-0.1-0.1-0.2c0-0.1,0-0.1-0.1-0.2c0-0.1-0.1-0.1-0.1-0.2C28.1,8.1,28,8,28,8
			c0,0-0.1-0.1-0.1-0.1c0-0.1-0.1-0.1-0.1-0.2c0,0-0.1-0.1-0.1-0.1c0-0.1-0.1-0.1-0.2-0.2c0,0-0.1-0.1-0.1-0.1
			c-0.1-0.1-0.1-0.1-0.2-0.1S27.1,7,27,6.9c0,0-0.1-0.1-0.2-0.1c-0.1,0-0.1-0.1-0.2-0.1C26.1,6.3,25.4,6.1,24.5,6.1L24.5,6.1
			C24.6,6.1,24.6,6.1,24.5,6.1C24.6,6.1,24.6,6.1,24.5,6.1C24.6,6.1,24.6,6.1,24.5,6.1C24.5,6.1,24.5,6.1,24.5,6.1L24.5,6.1
			C24.5,6.1,24.5,6.1,24.5,6.1"/>
		<path class="st1" d="M14.3,23l-2.1,1.2c-2,1.1-2.7,3.7-1.5,5.7c0.4,0.7,0.9,1.2,1.5,1.5c0.1,0,0.1,0.1,0.2,0.1l0,0
			c0.1,0,0.1,0,0.2,0.1c0,0,0.1,0,0.1,0l0,0c0.5,0.2,1,0.3,1.5,0.3l0,0c0,0,0,0,0,0c0,0,0,0,0,0h0c0,0,0,0,0,0c0,0,0,0,0,0
			c0.5,0,1-0.1,1.5-0.3l0,0c0,0,0.1,0,0.1,0c0.1,0,0.1,0,0.1-0.1l0.1,0c0.1,0,0.1-0.1,0.2-0.1c0.6-0.4,1.2-0.9,1.5-1.5
			c0.4-0.7,0.6-1.4,0.6-2.1c0-1.4-0.7-2.8-2.1-3.6l0,0L14.3,23"/>
		<path class="st1" d="M4.2,6.1C3.4,6.1,2.6,6.3,2,6.7c-0.1,0-0.1,0.1-0.2,0.1c-0.1,0-0.1,0.1-0.2,0.1c0,0-0.1,0.1-0.2,0.1
			c-0.1,0-0.1,0.1-0.2,0.1c0,0-0.1,0.1-0.1,0.1C1.1,7.4,1.1,7.4,1,7.5c0,0-0.1,0.1-0.1,0.1c0,0.1-0.1,0.1-0.1,0.2
			c0,0.1-0.1,0.1-0.1,0.1c0,0.1-0.1,0.1-0.1,0.2c0,0.1-0.1,0.1-0.1,0.2c0,0-0.1,0.1-0.1,0.2c0,0.1-0.1,0.1-0.1,0.2
			c0,0.1,0,0.1-0.1,0.2c0,0.1-0.1,0.1-0.1,0.2c0,0.1,0,0.1,0,0.2c0,0.1,0,0.1,0,0.2c0,0.1,0,0.1,0,0.2c0,0.1,0,0.1,0,0.2
			c0,0.1,0,0.2,0,0.2c0,0.7,0.1,1.4,0.5,2.1c0,0,0,0,0,0c0,0,0,0,0,0c0,0,0,0,0,0l0,0c0,0,0,0,0,0c0,0,0,0,0,0c0,0,0,0,0,0l0,0l0,0
			c0,0,0,0,0,0c0.1,0.1,0.1,0.2,0.2,0.3c0,0,0,0.1,0.1,0.1C0.9,12.8,1,12.9,1,13l0,0c0.1,0.1,0.2,0.2,0.3,0.3c0,0,0,0,0.1,0.1
			c0.1,0.1,0.2,0.2,0.3,0.2l0,0c0.1,0.1,0.2,0.1,0.3,0.2c0,0,0,0,0.1,0c0.1,0.1,0.2,0.1,0.3,0.2l0,0c0.1,0.1,0.2,0.1,0.3,0.1
			c0,0,0.1,0,0.1,0c0.1,0,0.2,0.1,0.3,0.1l0,0c0.1,0,0.2,0.1,0.3,0.1c0,0,0.1,0,0.1,0c0.1,0,0.2,0,0.3,0l0,0c0.1,0,0.2,0,0.3,0
			c0,0,0.1,0,0.1,0c0,0,0.1,0,0.1,0c0.1,0,0.2,0,0.3,0l0,0c0.1,0,0.2,0,0.4-0.1c0,0,0.1,0,0.1,0c0.1,0,0.2-0.1,0.3-0.1l0,0
			c0.1,0,0.2-0.1,0.3-0.1c0,0,0.1,0,0.1,0c0.1-0.1,0.2-0.1,0.3-0.2c0,0,0,0,0,0l0,0l2.1-1.2l0-2.4C8.3,7.9,6.5,6.1,4.2,6.1"/>
	</g>
	<g>
		<path class="st2" d="M44.6,17.4h-3.9v6c1.4,0.2,2.7,0.3,3.9,0.3c3,0,4.5-1.1,4.5-3.2C49.1,18.6,47.9,17.4,44.6,17.4z M40.6,14.3
			H44c3.1,0,3.9-1.1,3.9-2.9c0-1.9-1.3-2.9-3.9-2.9c-1,0-2.2,0.1-3.4,0.3V14.3z M49.3,15.5c2.5,0.9,3.7,2.7,3.7,5.3c0,4-2.8,6-8.3,6
			c-2.5,0-5.1-0.3-7.9-0.9V6.3c2.9-0.6,5.4-0.9,7.3-0.9c5.5,0,7.7,1.9,7.7,5.5C51.8,13.2,50.9,14.7,49.3,15.5L49.3,15.5z"/>
		<path class="st2" d="M63.8,14.3h-4.5v12.1h-3.4V12.3c2.8-0.8,4.7-0.9,7.9-0.9V14.3z"/>
		<path class="st2" d="M67.2,22.2c0,1.3,0.8,2,2.5,2h3.1v-4h-2.7C68.2,20.2,67.2,20.8,67.2,22.2z M69.6,17.5h3.1v-0.7
			c0-1.9-0.5-2.5-2.5-2.5h-4v-2.9c1,0,2.8,0,4.3,0c4.4,0,5.7,2,5.7,5.4v9.2c-2.3,0.8-5.3,0.9-6.7,0.9c-4.2,0-5.7-1.7-5.7-4.6
			C63.8,19.1,65.9,17.5,69.6,17.5L69.6,17.5z"/>
		<path class="st2" d="M82.8,26.4h-3.4V11.8h3.4V26.4z"/>
		<path class="st2" d="M99,26.4h-3.4v-9.8c0-1.6-1.4-2.4-3.1-2.4c-0.9,0-2.2,0-3.1,0v12.1h-3.4V12.3c2.2-0.7,5-0.9,6.9-0.9
			c3.2,0,6.1,1.7,6.1,5.2V26.4z"/>
	</g>
</g>
</svg>
