<?xml version="1.0" encoding="utf-8"?>
<!-- Generator: Adobe Illustrator 20.1.0, SVG Export Plug-In . SVG Version: 6.00 Build 0)  -->
<svg version="1.1" id="Layer_1" xmlns="http://www.w3.org/2000/svg" xmlns:xlink="http://www.w3.org/1999/xlink" x="0px" y="0px"
	 viewBox="0 0 64 64" style="enable-background:new 0 0 64 64;" xml:space="preserve">
<style type="text/css">
	.st0{fill:none;stroke:#FAD36B;stroke-width:2;stroke-linecap:round;stroke-linejoin:round;}
</style>
<title></title>
<path class="st0" d="M16,46h-5c-2.2,0-4-1.8-4-4V24c0-2.2,1.8-4,4-4h42c2.2,0,4,1.8,4,4v18c0,2.2-1.8,4-4,4h-5"/>
<line class="st0" x1="15" y1="41" x2="49" y2="41"/>
<path class="st0" d="M20,41h24l0,0v12c0,1.1-0.9,2-2,2H22c-1.1,0-2-0.9-2-2V41L20,41z"/>
<path class="st0" d="M39,10v4c0,1.1,0.9,2,2,2h4.1l-5.3-6H21c-1.1,0-2,0.9-2,2v7"/>
<line class="st0" x1="26" y1="46" x2="38" y2="46"/>
</svg>
